# File produced by Open Asset Import Library (http://www.assimp.sf.net)
# (assimp v3.1.24787357)

mtllib dog bowl.mtl

# 142 vertex positions
v  3.44726 0.530962 -1.12008
v  2.93242 0.530962 -2.13053
v  -3.38991e-09 0.530962 -4.292e-07
v  2.13053 0.530962 -2.93242
v  1.12008 0.530962 -3.44727
v  2.60138e-08 0.530962 -3.62467
v  -1.12008 0.530962 -3.44726
v  -2.13053 0.530962 -2.93242
v  -2.93242 0.530962 -2.13053
v  -3.44726 0.530962 -1.12008
v  -3.62467 0.530962 -5.33175e-07
v  -3.44726 0.530962 1.12008
v  -2.93242 0.530962 2.13053
v  -2.13053 0.530962 2.93242
v  -1.12008 0.530962 3.44726
v  -2.49574e-08 0.530962 3.62467
v  1.12008 0.530962 3.44726
v  2.13053 0.530962 2.93242
v  2.93242 0.530962 2.13053
v  3.44726 0.530962 1.12008
v  3.62467 0.530962 -4.08659e-07
v  4.33994 1.30171 -1.41013
v  4.76868 2.72932 -1.54944
v  4.05648 2.72932 -2.94721
v  3.69177 1.30171 -2.68223
v  2.94721 2.72932 -4.05649
v  2.68223 1.30171 -3.69178
v  1.54944 2.72932 -4.76869
v  1.41013 1.30171 -4.33994
v  0 2.72932 -5.01409
v  0 1.30171 -4.56329
v  -1.54944 2.72932 -4.76868
v  -1.41013 1.30171 -4.33994
v  -2.94721 2.72932 -4.05649
v  -2.68223 1.30171 -3.69178
v  -4.05649 2.72932 -2.94721
v  -3.69178 1.30171 -2.68223
v  -4.76868 2.72932 -1.54944
v  -4.33994 1.30171 -1.41013
v  -5.01409 2.72932 -1.82962e-07
v  -4.56328 1.30171 -2.69657e-07
v  -4.76868 2.72932 1.54944
v  -4.33994 1.30171 1.41013
v  -4.05648 2.72932 2.94721
v  -3.69177 1.30171 2.68223
v  -2.94721 2.72932 4.05648
v  -2.68223 1.30171 3.69177
v  -1.54944 2.72932 4.76868
v  -1.41013 1.30171 4.33994
v  -7.05102e-08 2.72932 5.01409
v  -6.41705e-08 1.30171 4.56328
v  1.54944 2.72932 4.76868
v  1.41013 1.30171 4.33994
v  2.94721 2.72932 4.05648
v  2.68223 1.30171 3.69177
v  4.05648 2.72932 2.94721
v  3.69177 1.30171 2.68223
v  4.76868 2.72932 1.54944
v  4.33994 1.30171 1.41013
v  5.01409 2.72932 -1.82962e-07
v  4.56328 1.30171 -2.69657e-07
v  6.11334 -0.498269 -4.4416
v  7.18666 -0.498269 -2.33509
v  6.98161 -0.851879 -2.26846
v  5.93891 -0.851879 -4.31487
v  7.34089 -0.851879 -1.66783e-07
v  7.55649 -0.498269 0
v  4.4416 -0.498269 -6.11334
v  4.31487 -0.851879 -5.93891
v  2.33509 -0.498269 -7.18666
v  2.26846 -0.851879 -6.98161
v  0 -0.498269 -7.5565
v  1.96791e-07 -0.851879 -7.3409
v  -2.33509 -0.498269 -7.18665
v  -2.26846 -0.851879 -6.98161
v  -4.4416 -0.498269 -6.11334
v  -4.31487 -0.851879 -5.93891
v  -6.11333 -0.498269 -4.4416
v  -5.93891 -0.851879 -4.31487
v  -7.18665 -0.498269 -2.33509
v  -6.9816 -0.851879 -2.26846
v  -7.5565 -0.498269 0
v  -7.3409 -0.851879 0
v  -7.18665 -0.498269 2.33509
v  -6.98161 -0.851879 2.26846
v  -6.11333 -0.498269 4.4416
v  -5.93891 -0.851879 4.31487
v  -4.4416 -0.498269 6.11333
v  -4.31487 -0.851879 5.93891
v  -2.33509 -0.498269 7.18665
v  -2.26846 -0.851879 6.98161
v  -8.1945e-08 -0.498269 7.55649
v  -7.66859e-08 -0.851879 7.34089
v  2.33509 -0.498269 7.18665
v  2.26846 -0.851879 6.98161
v  4.4416 -0.498269 6.11333
v  4.31487 -0.851879 5.93891
v  6.11333 -0.498269 4.4416
v  5.93891 -0.851879 4.31487
v  7.18665 -0.498269 2.33508
v  6.9816 -0.851879 2.26846
v  5.94135 2.51637 0
v  5.65056 2.51637 -1.83598
v  5.31007 2.72932 -1.72535
v  5.58334 2.72932 -1.08241e-07
v  4.51701 2.72932 -3.2818
v  4.80666 2.51637 -3.49224
v  3.2818 2.72932 -4.51702
v  3.49224 2.51637 -4.80666
v  1.72535 2.72932 -5.31007
v  1.83598 2.51637 -5.65057
v  2.20542e-07 2.72932 -5.58334
v  0 2.51637 -5.94135
v  -1.72535 2.72932 -5.31007
v  -1.83598 2.51637 -5.65056
v  -3.2818 2.72932 -4.51702
v  -3.49224 2.51637 -4.80666
v  -4.51701 2.72932 -3.2818
v  -4.80666 2.51637 -3.49224
v  -5.31007 2.72932 -1.72535
v  -5.65056 2.51637 -1.83598
v  -5.58334 2.72932 0
v  -5.94135 2.51637 0
v  -5.31007 2.72932 1.72535
v  -5.65056 2.51637 1.83598
v  -4.51701 2.72932 3.2818
v  -4.80665 2.51637 3.49224
v  -3.2818 2.72932 4.51701
v  -3.49224 2.51637 4.80665
v  -1.72535 2.72932 5.31007
v  -1.83598 2.51637 5.65056
v  -1.93461e-07 2.72932 5.58333
v  -8.1945e-08 2.51637 5.94135
v  1.72534 2.72932 5.31007
v  1.83598 2.51637 5.65056
v  3.2818 2.72932 4.51701
v  3.49224 2.51637 4.80665
v  4.51701 2.72932 3.2818
v  4.80665 2.51637 3.49224
v  5.31007 2.72932 1.72535
v  5.65056 2.51637 1.83598
v  0 -0.851897 0

# 202 UV coordinates
vt 0.298676 0.626472 0
vt 0.304819 0.657274 0
vt 0.197157 0.662469 0
vt 0.302045 0.688568 0
vt 0.290541 0.717976 0
vt 0.271156 0.743273 0
vt 0.245275 0.76253 0
vt 0.214608 0.773839 0
vt 0.817608 0.443198 0
vt 0.849484 0.452362 0
vt 0.812165 0.556508 0
vt 0.877216 0.469254 0
vt 0.899117 0.492495 0
vt 0.913684 0.52051 0
vt 0.919827 0.551312 0
vt 0.917053 0.582606 0
vt 0.905549 0.612015 0
vt 0.886164 0.637312 0
vt 0.860283 0.656569 0
vt 0.829616 0.667877 0
vt 0.2026 0.549159 0
vt 0.234475 0.558324 0
vt 0.262208 0.575216 0
vt 0.284109 0.598456 0
vt 0.331633 0.615095 0
vt 0.37227 0.600493 0
vt 0.382721 0.651696 0
vt 0.339652 0.655051 0
vt 0.378674 0.703966 0
vt 0.336225 0.695737 0
vt 0.360538 0.753037 0
vt 0.321628 0.733962 0
vt 0.330295 0.795161 0
vt 0.297144 0.766876 0
vt 0.291402 0.827874 0
vt 0.264851 0.792489 0
vt 0.248784 0.851201 0
vt 0.227206 0.810553 0
vt 0.8273 0.405799 0
vt 0.844796 0.36458 0
vt 0.887902 0.383451 0
vt 0.865924 0.420885 0
vt 0.929097 0.410943 0
vt 0.90027 0.443112 0
vt 0.963515 0.448509 0
vt 0.927947 0.47298 0
vt 0.987278 0.494532 0
vt 0.946641 0.509134 0
vt 0.997729 0.545735 0
vt 0.95466 0.54909 0
vt 0.993682 0.598005 0
vt 0.951233 0.589776 0
vt 0.975546 0.647076 0
vt 0.936635 0.628 0
vt 0.945302 0.689199 0
vt 0.912152 0.660915 0
vt 0.90641 0.721912 0
vt 0.879858 0.686528 0
vt 0.863791 0.74524 0
vt 0.842214 0.704592 0
vt 0.212291 0.511761 0
vt 0.229787 0.470542 0
vt 0.272894 0.489412 0
vt 0.250916 0.526846 0
vt 0.314088 0.516905 0
vt 0.285261 0.549074 0
vt 0.348506 0.554471 0
vt 0.312939 0.578942 0
vt 0.6853 0.705192 0
vt 0.678742 0.643186 0
vt 0.689529 0.641328 0
vt 0.696244 0.70493 0
vt 0.673503 0.57946 0
vt 0.663096 0.582852 0
vt 0.682624 0.767483 0
vt 0.693487 0.768822 0
vt 0.670752 0.828654 0
vt 0.681302 0.831548 0
vt 0.649933 0.887325 0
vt 0.659971 0.891635 0
vt 0.62081 0.942434 0
vt 0.630312 0.947742 0
vt 0.58535 0.99503 0
vt 0.595375 0.999999 0
vt 0.747867 0.0551532 0
vt 0.710804 0.00555872 0
vt 0.720648 9.76563e-07 0
vt 0.757214 0.04941 0
vt 0.78 0.108445 0
vt 0.789851 0.103671 0
vt 0.804342 0.16578 0
vt 0.814749 0.162387 0
vt 0.819988 0.226113 0
vt 0.830775 0.224256 0
vt 0.826547 0.28812 0
vt 0.83749 0.287857 0
vt 0.82387 0.350411 0
vt 0.834733 0.35175 0
vt 0.811998 0.411581 0
vt 0.822549 0.414476 0
vt 0.791179 0.470252 0
vt 0.801218 0.474562 0
vt 0.762056 0.525361 0
vt 0.771559 0.530669 0
vt 0.726596 0.577958 0
vt 0.736622 0.582927 0
vt 0.606622 0.472226 0
vt 0.569559 0.422631 0
vt 0.579403 0.417073 0
vt 0.615968 0.466482 0
vt 0.638754 0.525517 0
vt 0.648605 0.520744 0
vt 0.576771 0.611679 0
vt 0.588961 0.65918 0
vt 0.57806 0.661221 0
vt 0.566313 0.615311 0
vt 0.582998 0.708339 0
vt 0.594086 0.707926 0
vt 0.581009 0.755672 0
vt 0.592031 0.7569 0
vt 0.572134 0.802217 0
vt 0.582826 0.805083 0
vt 0.556552 0.84695 0
vt 0.566612 0.851472 0
vt 0.534473 0.888641 0
vt 0.543496 0.894972 0
vt 0.50559 0.9249 0
vt 0.51343 0.933454 0
vt 0.664648 0.114007 0
vt 0.633159 0.0786693 0
vt 0.640295 0.0694526 0
vt 0.673303 0.107206 0
vt 0.689261 0.154509 0
vt 0.698996 0.149324 0
vt 0.707559 0.198239 0
vt 0.718017 0.194607 0
vt 0.719306 0.244149 0
vt 0.730207 0.242108 0
vt 0.724244 0.291267 0
vt 0.735332 0.290854 0
vt 0.722255 0.3386 0
vt 0.733277 0.339828 0
vt 0.71338 0.385144 0
vt 0.724073 0.38801 0
vt 0.697799 0.429877 0
vt 0.707858 0.4344 0
vt 0.67572 0.471569 0
vt 0.684743 0.4779 0
vt 0.646836 0.507827 0
vt 0.654677 0.516381 0
vt 0.523402 0.531079 0
vt 0.491913 0.495742 0
vt 0.499049 0.486525 0
vt 0.532057 0.524278 0
vt 0.548015 0.571581 0
vt 0.557751 0.566396 0
vt 0.619278 0.336787 0
vt 0.579609 0.408946 0
vt 0.371646 0.247633 0
vt 0.634708 0.255901 0
vt 0.624388 0.174205 0
vt 0.589327 0.0996976 0
vt 0.532958 0.0396709 0
vt 0.460799 9.76563e-07 0
vt 0.0808871 0.510695 0
vt 9.53674e-07 0.495265 0
vt 0.0891549 0.247633 0
vt 0.162582 0.500375 0
vt 0.23709 0.465315 0
vt 0.297117 0.408946 0
vt 0.336787 0.336787 0
vt 0.352217 0.255901 0
vt 0.341897 0.174206 0
vt 0.306836 0.0996979 0
vt 0.250468 0.039671 0
vt 0.178309 9.76563e-07 0
vt 0.363379 0.510696 0
vt 0.282493 0.495266 0
vt 0.445074 0.500375 0
vt 0.519582 0.465315 0
vt 0.563188 0.66394 0
vt 0.567885 0.708829 0
vt 0.565996 0.753919 0
vt 0.557573 0.798226 0
vt 0.542852 0.840696 0
vt 0.5222 0.879943 0
vt 0.495615 0.913085 0
vt 0.623837 0.0912541 0
vt 0.652805 0.123452 0
vt 0.675938 0.161607 0
vt 0.693273 0.203153 0
vt 0.704434 0.246868 0
vt 0.709131 0.291756 0
vt 0.707242 0.336847 0
vt 0.69882 0.381154 0
vt 0.684098 0.423624 0
vt 0.663447 0.46287 0
vt 0.636862 0.496013 0
vt 0.482591 0.508326 0
vt 0.511559 0.540525 0
vt 0.534692 0.57868 0
vt 0.552027 0.620225 0

# 162 vertex normals
vn -0.304653 0.947306 0.0989876
vn -0.259153 0.947306 0.188286
vn 7.15027e-09 1 6.8076e-10
vn -0.188286 0.947306 0.259153
vn -0.0989874 0.947306 0.304653
vn 8.74959e-08 0.947306 0.320331
vn 0.0989874 0.947306 0.304653
vn 0.188286 0.947306 0.259153
vn 0.259153 0.947306 0.188286
vn 0.304653 0.947306 0.0989876
vn 0.320331 0.947306 7.38247e-08
vn 0.304653 0.947306 -0.0989876
vn 0.259153 0.947306 -0.188286
vn 0.188286 0.947306 -0.259153
vn 0.0989879 0.947306 -0.304653
vn -1.8046e-07 0.947306 -0.320331
vn -0.098988 0.947306 -0.304653
vn -0.188286 0.947306 -0.259153
vn -0.259153 0.947306 -0.188286
vn -0.304653 0.947306 -0.0989879
vn -0.320331 0.947306 -1.12104e-07
vn -0.822811 0.501506 0.267347
vn -0.736823 0.632278 0.239408
vn -0.62678 0.632278 0.455382
vn -0.699925 0.501506 0.508525
vn -0.455382 0.632278 0.626779
vn -0.508525 0.501506 0.699925
vn -0.239408 0.632278 0.736823
vn -0.267347 0.501506 0.822811
vn 5.5587e-07 0.632278 0.774742
vn 5.48469e-07 0.501506 0.865154
vn 0.239408 0.632277 0.736824
vn 0.267347 0.501506 0.822811
vn 0.455382 0.632278 0.626779
vn 0.508525 0.501505 0.699925
vn 0.626779 0.632277 0.455382
vn 0.699925 0.501506 0.508525
vn 0.736823 0.632278 0.239408
vn 0.822811 0.501506 0.267347
vn 0.774742 0.632277 1.66473e-08
vn 0.865154 0.501506 2.14344e-08
vn 0.736823 0.632278 -0.239408
vn 0.822811 0.501505 -0.267347
vn 0.626779 0.632278 -0.455382
vn 0.699924 0.501506 -0.508525
vn 0.455382 0.632278 -0.626779
vn 0.508525 0.501505 -0.699925
vn 0.239408 0.632278 -0.736823
vn 0.267347 0.501506 -0.822811
vn -3.18609e-07 0.632277 -0.774742
vn -3.69429e-07 0.501506 -0.865154
vn -0.239409 0.632277 -0.736823
vn -0.267348 0.501505 -0.822811
vn -0.455382 0.632277 -0.626779
vn -0.508525 0.501506 -0.699925
vn -0.626779 0.632277 -0.455382
vn -0.699924 0.501505 -0.508525
vn -0.736823 0.632277 -0.239409
vn -0.822811 0.501505 -0.267348
vn -0.774742 0.632277 -2.57599e-07
vn -0.865154 0.501506 -2.69821e-07
vn 0.749838 0.37543 -0.544789
vn 0.881488 0.37543 -0.286412
vn 0.812023 -0.520583 -0.263841
vn 0.690749 -0.520581 -0.501858
vn 0.853811 -0.520584 1.96688e-07
vn 0.926851 0.375429 3.44027e-07
vn 0.544789 0.37543 -0.749838
vn 0.501858 -0.520581 -0.690748
vn 0.286413 0.37543 -0.881488
vn 0.263842 -0.520582 -0.812023
vn -5.20955e-07 0.37543 -0.926851
vn -5.3195e-07 -0.520582 -0.853812
vn -0.286413 0.37543 -0.881487
vn -0.263842 -0.520582 -0.812023
vn -0.544789 0.37543 -0.749838
vn -0.501858 -0.520582 -0.690748
vn -0.749838 0.375429 -0.544789
vn -0.690748 -0.520583 -0.501857
vn -0.881488 0.375429 -0.286413
vn -0.812023 -0.520583 -0.263843
vn -0.926851 0.37543 -3.44027e-08
vn -0.853811 -0.520583 -9.38736e-08
vn -0.881487 0.375429 0.286413
vn -0.812022 -0.520583 0.263843
vn -0.749838 0.375429 0.54479
vn -0.690747 -0.520583 0.501858
vn -0.544789 0.375429 0.749838
vn -0.501858 -0.520583 0.690748
vn -0.286413 0.375429 0.881488
vn -0.263843 -0.520582 0.812023
vn 4.91467e-09 0.37543 0.926851
vn 7.5993e-08 -0.520581 0.853812
vn 0.286413 0.37543 0.881488
vn 0.263842 -0.520581 0.812024
vn 0.544789 0.37543 0.749838
vn 0.501858 -0.520581 0.690748
vn 0.749838 0.37543 0.544789
vn 0.690748 -0.520582 0.501858
vn 0.881488 0.375429 0.286412
vn 0.812023 -0.520583 0.263841
vn 0.860114 0.510102 3.51626e-07
vn 0.818017 0.510103 -0.265789
vn 0.246981 0.965692 -0.0802488
vn 0.259691 0.965692 8.62296e-08
vn 0.210094 0.965692 -0.152642
vn 0.695847 0.510103 -0.505562
vn 0.152643 0.965692 -0.210094
vn 0.505562 0.510103 -0.695846
vn 0.0802487 0.965692 -0.246981
vn 0.265789 0.510103 -0.818017
vn -2.43139e-07 0.965692 -0.259691
vn -5.34115e-07 0.510103 -0.860113
vn -0.0802488 0.965692 -0.246981
vn -0.265789 0.510103 -0.818016
vn -0.152643 0.965692 -0.210094
vn -0.505562 0.510103 -0.695846
vn -0.210094 0.965692 -0.152642
vn -0.695847 0.510103 -0.505562
vn -0.246981 0.965692 -0.0802488
vn -0.818017 0.510103 -0.26579
vn -0.259691 0.965692 1.64253e-08
vn -0.860113 0.510103 -2.67058e-08
vn -0.246981 0.965692 0.080249
vn -0.818016 0.510103 0.26579
vn -0.210094 0.965692 0.152643
vn -0.695846 0.510102 0.505562
vn -0.152643 0.965692 0.210095
vn -0.505562 0.510102 0.695847
vn -0.0802489 0.965692 0.246981
vn -0.26579 0.510103 0.818017
vn 4.2408e-08 0.965692 0.259691
vn 2.22548e-08 0.510103 0.860114
vn 0.0802487 0.965692 0.24698
vn 0.26579 0.510103 0.818016
vn 0.152642 0.965692 0.210094
vn 0.505562 0.510103 0.695846
vn 0.210094 0.965692 0.152642
vn 0.695846 0.510103 0.505562
vn 0.246981 0.965692 0.080249
vn 0.818017 0.510103 0.26579
vn 1.9868e-06 -1 -1.43423e-06
vn 2.33562e-06 -1 -7.57709e-07
vn -7.39327e-14 -1 -4.03841e-10
vn 1.44349e-06 -1 -1.94839e-06
vn 7.58889e-07 -1 -2.33876e-06
vn -1.13181e-12 -1 -2.46053e-06
vn -7.58889e-07 -1 -2.34078e-06
vn -1.44349e-06 -1 -1.97545e-06
vn -1.9868e-06 -1 -1.40717e-06
vn -2.33562e-06 -1 -7.57708e-07
vn -2.45582e-06 -1 5.4765e-14
vn -2.33562e-06 -1 7.57708e-07
vn -1.9868e-06 -1 1.43423e-06
vn -1.44349e-06 -1 2.00252e-06
vn -7.5889e-07 -1 2.33472e-06
vn 1.8255e-14 -1 2.45649e-06
vn 7.58889e-07 -1 2.34078e-06
vn 1.44349e-06 -1 1.97545e-06
vn 1.9868e-06 -1 1.40717e-06
vn 2.33562e-06 -1 7.03587e-07
vn 2.45582e-06 -1 -5.47649e-14

# Mesh 'pCylinder1_pCylinder1' with 280 faces
g pCylinder1_pCylinder1
usemtl lambert1
f  1/1/1 2/2/2 3/3/3
f  2/2/2 4/4/4 3/3/3
f  4/4/4 5/5/5 3/3/3
f  5/5/5 6/6/6 3/3/3
f  6/6/6 7/7/7 3/3/3
f  7/7/7 8/8/8 3/3/3
f  8/9/8 9/10/9 3/11/3
f  9/10/9 10/12/10 3/11/3
f  10/12/10 11/13/11 3/11/3
f  11/13/11 12/14/12 3/11/3
f  12/14/12 13/15/13 3/11/3
f  13/15/13 14/16/14 3/11/3
f  14/16/14 15/17/15 3/11/3
f  15/17/15 16/18/16 3/11/3
f  16/18/16 17/19/17 3/11/3
f  17/19/17 18/20/18 3/11/3
f  18/21/18 19/22/19 3/3/3
f  19/22/19 20/23/20 3/3/3
f  20/23/20 21/24/21 3/3/3
f  21/24/21 1/1/1 3/3/3
f  22/25/22 23/26/23 24/27/24
f  24/27/24 25/28/25 22/25/22
f  25/28/25 24/27/24 26/29/26
f  26/29/26 27/30/27 25/28/25
f  27/30/27 26/29/26 28/31/28
f  28/31/28 29/32/29 27/30/27
f  29/32/29 28/31/28 30/33/30
f  30/33/30 31/34/31 29/32/29
f  31/34/31 30/33/30 32/35/32
f  32/35/32 33/36/33 31/34/31
f  33/36/33 32/35/32 34/37/34
f  34/37/34 35/38/35 33/36/33
f  35/39/35 34/40/34 36/41/36
f  36/41/36 37/42/37 35/39/35
f  37/42/37 36/41/36 38/43/38
f  38/43/38 39/44/39 37/42/37
f  39/44/39 38/43/38 40/45/40
f  40/45/40 41/46/41 39/44/39
f  41/46/41 40/45/40 42/47/42
f  42/47/42 43/48/43 41/46/41
f  43/48/43 42/47/42 44/49/44
f  44/49/44 45/50/45 43/48/43
f  45/50/45 44/49/44 46/51/46
f  46/51/46 47/52/47 45/50/45
f  47/52/47 46/51/46 48/53/48
f  48/53/48 49/54/49 47/52/47
f  49/54/49 48/53/48 50/55/50
f  50/55/50 51/56/51 49/54/49
f  51/56/51 50/55/50 52/57/52
f  52/57/52 53/58/53 51/56/51
f  53/58/53 52/57/52 54/59/54
f  54/59/54 55/60/55 53/58/53
f  55/61/55 54/62/54 56/63/56
f  56/63/56 57/64/57 55/61/55
f  57/64/57 56/63/56 58/65/58
f  58/65/58 59/66/59 57/64/57
f  59/66/59 58/65/58 60/67/60
f  60/67/60 61/68/61 59/66/59
f  61/68/61 60/67/60 23/26/23
f  23/26/23 22/25/22 61/68/61
f  1/1/1 22/25/22 25/28/25
f  25/28/25 2/2/2 1/1/1
f  2/2/2 25/28/25 27/30/27
f  27/30/27 4/4/4 2/2/2
f  4/4/4 27/30/27 29/32/29
f  29/32/29 5/5/5 4/4/4
f  5/5/5 29/32/29 31/34/31
f  31/34/31 6/6/6 5/5/5
f  6/6/6 31/34/31 33/36/33
f  33/36/33 7/7/7 6/6/6
f  7/7/7 33/36/33 35/38/35
f  35/38/35 8/8/8 7/7/7
f  8/9/8 35/39/35 37/42/37
f  37/42/37 9/10/9 8/9/8
f  9/10/9 37/42/37 39/44/39
f  39/44/39 10/12/10 9/10/9
f  10/12/10 39/44/39 41/46/41
f  41/46/41 11/13/11 10/12/10
f  11/13/11 41/46/41 43/48/43
f  43/48/43 12/14/12 11/13/11
f  12/14/12 43/48/43 45/50/45
f  45/50/45 13/15/13 12/14/12
f  13/15/13 45/50/45 47/52/47
f  47/52/47 14/16/14 13/15/13
f  14/16/14 47/52/47 49/54/49
f  49/54/49 15/17/15 14/16/14
f  15/17/15 49/54/49 51/56/51
f  51/56/51 16/18/16 15/17/15
f  16/18/16 51/56/51 53/58/53
f  53/58/53 17/19/17 16/18/16
f  17/19/17 53/58/53 55/60/55
f  55/60/55 18/20/18 17/19/17
f  18/21/18 55/61/55 57/64/57
f  57/64/57 19/22/19 18/21/18
f  19/22/19 57/64/57 59/66/59
f  59/66/59 20/23/20 19/22/19
f  20/23/20 59/66/59 61/68/61
f  61/68/61 21/24/21 20/23/20
f  21/24/21 61/68/61 22/25/22
f  22/25/22 1/1/1 21/24/21
f  62/69/62 63/70/63 64/71/64
f  64/71/64 65/72/65 62/69/62
f  66/73/66 64/71/64 63/70/63
f  63/70/63 67/74/67 66/73/66
f  68/75/68 62/69/62 65/72/65
f  65/72/65 69/76/69 68/75/68
f  70/77/70 68/75/68 69/76/69
f  69/76/69 71/78/71 70/77/70
f  72/79/72 70/77/70 71/78/71
f  71/78/71 73/80/73 72/79/72
f  74/81/74 72/79/72 73/80/73
f  73/80/73 75/82/75 74/81/74
f  76/83/76 74/81/74 75/82/75
f  75/82/75 77/84/77 76/83/76
f  78/85/78 76/86/76 77/87/77
f  77/87/77 79/88/79 78/85/78
f  80/89/80 78/85/78 79/88/79
f  79/88/79 81/90/81 80/89/80
f  82/91/82 80/89/80 81/90/81
f  81/90/81 83/92/83 82/91/82
f  84/93/84 82/91/82 83/92/83
f  83/92/83 85/94/85 84/93/84
f  86/95/86 84/93/84 85/94/85
f  85/94/85 87/96/87 86/95/86
f  88/97/88 86/95/86 87/96/87
f  87/96/87 89/98/89 88/97/88
f  90/99/90 88/97/88 89/98/89
f  89/98/89 91/100/91 90/99/90
f  92/101/92 90/99/90 91/100/91
f  91/100/91 93/102/93 92/101/92
f  94/103/94 92/101/92 93/102/93
f  93/102/93 95/104/95 94/103/94
f  96/105/96 94/103/94 95/104/95
f  95/104/95 97/106/97 96/105/96
f  98/107/98 96/108/96 97/109/97
f  97/109/97 99/110/99 98/107/98
f  100/111/100 98/107/98 99/110/99
f  99/110/99 101/112/101 100/111/100
f  67/74/67 100/111/100 101/112/101
f  101/112/101 66/73/66 67/74/67
f  102/113/102 103/114/103 104/115/104
f  104/115/104 105/116/105 102/113/102
f  106/117/106 104/115/104 103/114/103
f  103/114/103 107/118/107 106/117/106
f  108/119/108 106/117/106 107/118/107
f  107/118/107 109/120/109 108/119/108
f  110/121/110 108/119/108 109/120/109
f  109/120/109 111/122/111 110/121/110
f  112/123/112 110/121/110 111/122/111
f  111/122/111 113/124/113 112/123/112
f  114/125/114 112/123/112 113/124/113
f  113/124/113 115/126/115 114/125/114
f  116/127/116 114/125/114 115/126/115
f  115/126/115 117/128/117 116/127/116
f  118/129/118 116/130/116 117/131/117
f  117/131/117 119/132/119 118/129/118
f  120/133/120 118/129/118 119/132/119
f  119/132/119 121/134/121 120/133/120
f  122/135/122 120/133/120 121/134/121
f  121/134/121 123/136/123 122/135/122
f  124/137/124 122/135/122 123/136/123
f  123/136/123 125/138/125 124/137/124
f  126/139/126 124/137/124 125/138/125
f  125/138/125 127/140/127 126/139/126
f  128/141/128 126/139/126 127/140/127
f  127/140/127 129/142/129 128/141/128
f  130/143/130 128/141/128 129/142/129
f  129/142/129 131/144/131 130/143/130
f  132/145/132 130/143/130 131/144/131
f  131/144/131 133/146/133 132/145/132
f  134/147/134 132/145/132 133/146/133
f  133/146/133 135/148/135 134/147/134
f  136/149/136 134/147/134 135/148/135
f  135/148/135 137/150/137 136/149/136
f  138/151/138 136/152/136 137/153/137
f  137/153/137 139/154/139 138/151/138
f  140/155/140 138/151/138 139/154/139
f  139/154/139 141/156/141 140/155/140
f  105/116/105 140/155/140 141/156/141
f  141/156/141 102/113/102 105/116/105
f  103/114/103 63/70/63 62/69/62
f  62/69/62 107/118/107 103/114/103
f  107/118/107 62/69/62 68/75/68
f  68/75/68 109/120/109 107/118/107
f  109/120/109 68/75/68 70/77/70
f  70/77/70 111/122/111 109/120/109
f  111/122/111 70/77/70 72/79/72
f  72/79/72 113/124/113 111/122/111
f  113/124/113 72/79/72 74/81/74
f  74/81/74 115/126/115 113/124/113
f  115/126/115 74/81/74 76/83/76
f  76/83/76 117/128/117 115/126/115
f  117/131/117 76/86/76 78/85/78
f  78/85/78 119/132/119 117/131/117
f  119/132/119 78/85/78 80/89/80
f  80/89/80 121/134/121 119/132/119
f  121/134/121 80/89/80 82/91/82
f  82/91/82 123/136/123 121/134/121
f  123/136/123 82/91/82 84/93/84
f  84/93/84 125/138/125 123/136/123
f  125/138/125 84/93/84 86/95/86
f  86/95/86 127/140/127 125/138/125
f  127/140/127 86/95/86 88/97/88
f  88/97/88 129/142/129 127/140/127
f  129/142/129 88/97/88 90/99/90
f  90/99/90 131/144/131 129/142/129
f  131/144/131 90/99/90 92/101/92
f  92/101/92 133/146/133 131/144/131
f  133/146/133 92/101/92 94/103/94
f  94/103/94 135/148/135 133/146/133
f  135/148/135 94/103/94 96/105/96
f  96/105/96 137/150/137 135/148/135
f  137/153/137 96/108/96 98/107/98
f  98/107/98 139/154/139 137/153/137
f  139/154/139 98/107/98 100/111/100
f  100/111/100 141/156/141 139/154/139
f  141/156/141 100/111/100 67/74/67
f  67/74/67 102/113/102 141/156/141
f  102/113/102 67/74/67 63/70/63
f  63/70/63 103/114/103 102/113/102
f  65/157/142 64/158/143 142/159/144
f  69/160/145 65/157/142 142/159/144
f  71/161/146 69/160/145 142/159/144
f  73/162/147 71/161/146 142/159/144
f  75/163/148 73/162/147 142/159/144
f  77/164/149 75/163/148 142/159/144
f  79/165/150 77/166/149 142/167/144
f  81/168/151 79/165/150 142/167/144
f  83/169/152 81/168/151 142/167/144
f  85/170/153 83/169/152 142/167/144
f  87/171/154 85/170/153 142/167/144
f  89/172/155 87/171/154 142/167/144
f  91/173/156 89/172/155 142/167/144
f  93/174/157 91/173/156 142/167/144
f  95/175/158 93/174/157 142/167/144
f  97/176/159 95/175/158 142/167/144
f  99/177/160 97/178/159 142/159/144
f  101/179/161 99/177/160 142/159/144
f  66/180/162 101/179/161 142/159/144
f  64/158/143 66/180/162 142/159/144
f  23/181/23 104/115/104 106/117/106
f  106/117/106 24/182/24 23/181/23
f  24/182/24 106/117/106 108/119/108
f  108/119/108 26/183/26 24/182/24
f  26/183/26 108/119/108 110/121/110
f  110/121/110 28/184/28 26/183/26
f  28/184/28 110/121/110 112/123/112
f  112/123/112 30/185/30 28/184/28
f  30/185/30 112/123/112 114/125/114
f  114/125/114 32/186/32 30/185/30
f  32/186/32 114/125/114 116/127/116
f  116/127/116 34/187/34 32/186/32
f  34/188/34 116/130/116 118/129/118
f  118/129/118 36/189/36 34/188/34
f  36/189/36 118/129/118 120/133/120
f  120/133/120 38/190/38 36/189/36
f  38/190/38 120/133/120 122/135/122
f  122/135/122 40/191/40 38/190/38
f  40/191/40 122/135/122 124/137/124
f  124/137/124 42/192/42 40/191/40
f  42/192/42 124/137/124 126/139/126
f  126/139/126 44/193/44 42/192/42
f  44/193/44 126/139/126 128/141/128
f  128/141/128 46/194/46 44/193/44
f  46/194/46 128/141/128 130/143/130
f  130/143/130 48/195/48 46/194/46
f  48/195/48 130/143/130 132/145/132
f  132/145/132 50/196/50 48/195/48
f  50/196/50 132/145/132 134/147/134
f  134/147/134 52/197/52 50/196/50
f  52/197/52 134/147/134 136/149/136
f  136/149/136 54/198/54 52/197/52
f  54/199/54 136/152/136 138/151/138
f  138/151/138 56/200/56 54/199/54
f  56/200/56 138/151/138 140/155/140
f  140/155/140 58/201/58 56/200/56
f  58/201/58 140/155/140 105/116/105
f  105/116/105 60/202/60 58/201/58
f  60/202/60 105/116/105 104/115/104
f  104/115/104 23/181/23 60/202/60

